<svg xmlns="http://www.w3.org/2000/svg" xmlns:xlink="http://www.w3.org/1999/xlink" width="500" zoomAndPan="magnify" viewBox="0 0 375 374.999991" height="500" preserveAspectRatio="xMidYMid meet" version="1.0"><defs><g/><clipPath id="6790332f7b"><path d="M 112 113.558594 L 278.441406 113.558594 L 278.441406 208 L 112 208 Z M 112 113.558594 " clip-rule="nonzero"/></clipPath><clipPath id="a7f13bed53"><path d="M 223.863281 167.5625 L 232.617188 167.5625 L 232.617188 176.316406 L 223.863281 176.316406 Z M 223.863281 167.5625 " clip-rule="nonzero"/></clipPath><clipPath id="e4e893b48b"><path d="M 228.238281 167.5625 C 225.824219 167.5625 223.863281 169.519531 223.863281 171.9375 C 223.863281 174.355469 225.824219 176.316406 228.238281 176.316406 C 230.65625 176.316406 232.617188 174.355469 232.617188 171.9375 C 232.617188 169.519531 230.65625 167.5625 228.238281 167.5625 Z M 228.238281 167.5625 " clip-rule="nonzero"/></clipPath><clipPath id="8861b1c56f"><path d="M 237.203125 167.5625 L 245.957031 167.5625 L 245.957031 176.316406 L 237.203125 176.316406 Z M 237.203125 167.5625 " clip-rule="nonzero"/></clipPath><clipPath id="fcb6792134"><path d="M 241.578125 167.5625 C 239.160156 167.5625 237.203125 169.519531 237.203125 171.9375 C 237.203125 174.355469 239.160156 176.316406 241.578125 176.316406 C 243.996094 176.316406 245.957031 174.355469 245.957031 171.9375 C 245.957031 169.519531 243.996094 167.5625 241.578125 167.5625 Z M 241.578125 167.5625 " clip-rule="nonzero"/></clipPath><clipPath id="e5e9054236"><path d="M 250.539062 167.5625 L 259.292969 167.5625 L 259.292969 176.316406 L 250.539062 176.316406 Z M 250.539062 167.5625 " clip-rule="nonzero"/></clipPath><clipPath id="aaeaebcad9"><path d="M 254.917969 167.5625 C 252.5 167.5625 250.539062 169.519531 250.539062 171.9375 C 250.539062 174.355469 252.5 176.316406 254.917969 176.316406 C 257.335938 176.316406 259.292969 174.355469 259.292969 171.9375 C 259.292969 169.519531 257.335938 167.5625 254.917969 167.5625 Z M 254.917969 167.5625 " clip-rule="nonzero"/></clipPath></defs><g clip-path="url(#6790332f7b)"><path fill="#ffffff" d="M 241.539062 133.769531 C 231.632812 133.769531 222.386719 137.601562 215.386719 144.601562 L 169.683594 191.359375 C 158.324219 202.71875 139.964844 202.71875 128.601562 191.359375 C 123.054688 185.8125 120.015625 178.546875 120.015625 170.753906 C 120.015625 162.960938 123.054688 155.695312 128.472656 150.148438 C 133.886719 144.601562 141.285156 141.695312 149.078125 141.695312 L 179.195312 141.695312 L 166.117188 154.769531 C 164.53125 156.355469 164.53125 158.867188 166.117188 160.320312 C 166.910156 161.113281 167.964844 161.507812 168.890625 161.507812 C 169.816406 161.507812 170.871094 161.113281 171.664062 160.320312 L 191.476562 140.503906 C 193.0625 138.921875 193.0625 136.410156 191.476562 134.957031 L 171.664062 115.144531 C 170.078125 113.558594 167.570312 113.558594 166.117188 115.144531 C 164.53125 116.730469 164.53125 119.238281 166.117188 120.691406 L 179.195312 133.769531 L 149.078125 133.769531 C 139.171875 133.769531 129.925781 137.601562 122.921875 144.601562 C 115.921875 151.601562 112.09375 160.847656 112.09375 170.753906 C 112.09375 180.660156 115.921875 189.90625 122.921875 196.90625 C 137.320312 211.304688 160.832031 211.304688 175.230469 196.90625 L 220.933594 150.28125 C 226.480469 144.734375 233.746094 141.695312 241.539062 141.695312 C 249.332031 141.695312 256.597656 144.734375 262.144531 150.148438 C 267.691406 155.5625 270.597656 162.960938 270.597656 170.753906 C 270.597656 178.546875 267.5625 185.8125 262.144531 191.359375 C 256.730469 196.90625 249.332031 199.8125 241.539062 199.8125 C 233.746094 199.8125 226.480469 196.777344 220.933594 191.359375 C 219.347656 189.773438 216.839844 189.773438 215.386719 191.359375 C 213.800781 192.945312 213.800781 195.453125 215.386719 196.90625 C 222.386719 203.910156 231.632812 207.738281 241.539062 207.738281 C 251.445312 207.738281 260.691406 203.910156 267.691406 196.90625 C 274.695312 189.90625 278.523438 180.660156 278.523438 170.753906 C 278.523438 160.847656 274.695312 151.601562 267.691406 144.601562 C 260.691406 137.601562 251.445312 133.769531 241.539062 133.769531 Z M 241.539062 133.769531 " fill-opacity="1" fill-rule="nonzero"/></g><g clip-path="url(#a7f13bed53)"><g clip-path="url(#e4e893b48b)"><path fill="#f7ba00" d="M 223.863281 167.5625 L 232.617188 167.5625 L 232.617188 176.316406 L 223.863281 176.316406 Z M 223.863281 167.5625 " fill-opacity="1" fill-rule="nonzero"/></g></g><g clip-path="url(#8861b1c56f)"><g clip-path="url(#fcb6792134)"><path fill="#f7ba00" d="M 237.203125 167.5625 L 245.957031 167.5625 L 245.957031 176.316406 L 237.203125 176.316406 Z M 237.203125 167.5625 " fill-opacity="1" fill-rule="nonzero"/></g></g><g clip-path="url(#e5e9054236)"><g clip-path="url(#aaeaebcad9)"><path fill="#f7ba00" d="M 250.539062 167.5625 L 259.292969 167.5625 L 259.292969 176.316406 L 250.539062 176.316406 Z M 250.539062 167.5625 " fill-opacity="1" fill-rule="nonzero"/></g></g><g fill="#feae49" fill-opacity="1"><g transform="translate(104.739163, 242.939324)"><g><path d="M 10.515625 -11.78125 L 20.359375 0 L 16.328125 0 L 8.40625 -9.84375 L 6.203125 -7.46875 L 6.203125 0 L 3.34375 0 L 3.34375 -23.03125 L 6.203125 -23.03125 L 6.203125 -10.78125 L 17.59375 -23.03125 L 20.953125 -23.03125 Z M 10.515625 -11.78125 "/></g></g></g><g fill="#feae49" fill-opacity="1"><g transform="translate(125.067012, 242.939324)"><g><path d="M 17.359375 -12.984375 C 17.398438 -12.535156 17.421875 -12.09375 17.421875 -11.65625 C 17.421875 -11.226562 17.421875 -10.660156 17.421875 -9.953125 L 17.421875 0 L 14.546875 0 L 14.546875 -9.75 C 14.546875 -10.1875 14.546875 -10.601562 14.546875 -11 C 14.546875 -11.40625 14.523438 -11.832031 14.484375 -12.28125 C 14.390625 -13.320312 14.035156 -14.179688 13.421875 -14.859375 C 12.816406 -15.546875 11.828125 -15.890625 10.453125 -15.890625 C 9.535156 -15.890625 8.6875 -15.628906 7.90625 -15.109375 C 7.125 -14.597656 6.5 -13.753906 6.03125 -12.578125 C 5.570312 -11.398438 5.34375 -9.800781 5.34375 -7.78125 L 5.34375 0 L 2.46875 0 L 2.46875 -17.6875 L 5.34375 -17.6875 L 5.34375 -14.65625 L 6.4375 -16.6875 C 7.195312 -17.269531 7.929688 -17.660156 8.640625 -17.859375 C 9.359375 -18.054688 10.160156 -18.15625 11.046875 -18.15625 C 12.984375 -18.15625 14.484375 -17.679688 15.546875 -16.734375 C 16.617188 -15.785156 17.222656 -14.535156 17.359375 -12.984375 Z M 17.359375 -12.984375 "/></g></g></g><g fill="#feae49" fill-opacity="1"><g transform="translate(144.860799, 242.939324)"><g><path d="M 9.78125 -18.15625 C 11.78125 -18.15625 13.429688 -17.726562 14.734375 -16.875 C 16.035156 -16.019531 17 -14.882812 17.625 -13.46875 C 18.25 -12.050781 18.5625 -10.507812 18.5625 -8.84375 C 18.5625 -7.195312 18.25 -5.660156 17.625 -4.234375 C 17 -2.816406 16.035156 -1.675781 14.734375 -0.8125 C 13.429688 0.0390625 11.78125 0.46875 9.78125 0.46875 C 7.78125 0.46875 6.132812 0.0390625 4.84375 -0.8125 C 3.550781 -1.675781 2.585938 -2.816406 1.953125 -4.234375 C 1.316406 -5.660156 1 -7.195312 1 -8.84375 C 1 -10.507812 1.316406 -12.050781 1.953125 -13.46875 C 2.585938 -14.882812 3.550781 -16.019531 4.84375 -16.875 C 6.132812 -17.726562 7.78125 -18.15625 9.78125 -18.15625 Z M 9.78125 -1.734375 C 10.976562 -1.734375 11.992188 -2.039062 12.828125 -2.65625 C 13.660156 -3.269531 14.300781 -4.109375 14.75 -5.171875 C 15.195312 -6.242188 15.421875 -7.46875 15.421875 -8.84375 C 15.421875 -10.9375 14.925781 -12.644531 13.9375 -13.96875 C 12.945312 -15.289062 11.5625 -15.953125 9.78125 -15.953125 C 8 -15.953125 6.613281 -15.289062 5.625 -13.96875 C 4.632812 -12.644531 4.140625 -10.9375 4.140625 -8.84375 C 4.140625 -7.46875 4.359375 -6.242188 4.796875 -5.171875 C 5.242188 -4.109375 5.882812 -3.269531 6.71875 -2.65625 C 7.5625 -2.039062 8.582031 -1.734375 9.78125 -1.734375 Z M 9.78125 -1.734375 "/></g></g></g><g fill="#feae49" fill-opacity="1"><g transform="translate(164.420929, 242.939324)"><g><path d="M 26 -17.6875 L 20.359375 0 L 16.953125 0 L 13.015625 -14.890625 L 9.078125 0 L 5.671875 0 L 0.03125 -17.6875 L 3.34375 -17.6875 L 7.4375 -2.734375 L 11.3125 -17.6875 L 14.890625 -17.6875 L 18.828125 -2.84375 L 22.921875 -17.6875 Z M 26 -17.6875 "/></g></g></g><g fill="#feae49" fill-opacity="1"><g transform="translate(190.623497, 242.939324)"><g><path d="M 5.203125 -24.53125 L 5.203125 -5.078125 C 5.203125 -4.804688 5.203125 -4.53125 5.203125 -4.25 C 5.203125 -3.976562 5.210938 -3.695312 5.234375 -3.40625 C 5.285156 -2.84375 5.460938 -2.457031 5.765625 -2.25 C 6.078125 -2.039062 6.625 -1.976562 7.40625 -2.0625 L 7.40625 0 C 7.09375 0.0390625 6.757812 0.0703125 6.40625 0.09375 C 6.050781 0.125 5.707031 0.140625 5.375 0.140625 C 4.550781 0.140625 3.851562 -0.0390625 3.28125 -0.40625 C 2.71875 -0.78125 2.414062 -1.523438 2.375 -2.640625 C 2.351562 -2.953125 2.34375 -3.296875 2.34375 -3.671875 C 2.34375 -4.046875 2.34375 -4.476562 2.34375 -4.96875 L 2.34375 -24.53125 Z M 5.203125 -24.53125 "/></g></g></g><g fill="#ffffff" fill-opacity="1"><g transform="translate(200.329077, 242.939324)"><g><path d="M 19.25 -9.140625 C 19.25 -8.585938 19.21875 -8.007812 19.15625 -7.40625 L 6.734375 -7.40625 C 6.890625 -5.914062 7.269531 -4.910156 7.875 -4.390625 C 8.476562 -3.867188 9.203125 -3.609375 10.046875 -3.609375 C 10.890625 -3.609375 11.566406 -3.804688 12.078125 -4.203125 C 12.585938 -4.609375 12.898438 -5.15625 13.015625 -5.84375 L 18.921875 -5.84375 C 18.410156 -3.8125 17.363281 -2.25 15.78125 -1.15625 C 14.207031 -0.0703125 12.273438 0.46875 9.984375 0.46875 C 8.285156 0.46875 6.738281 0.128906 5.34375 -0.546875 C 3.957031 -1.222656 2.851562 -2.25 2.03125 -3.625 C 1.207031 -5.007812 0.796875 -6.75 0.796875 -8.84375 C 0.796875 -10.582031 1.175781 -12.164062 1.9375 -13.59375 C 2.695312 -15.03125 3.785156 -16.171875 5.203125 -17.015625 C 6.628906 -17.867188 8.332031 -18.296875 10.3125 -18.296875 C 11.800781 -18.296875 13.101562 -18.035156 14.21875 -17.515625 C 15.332031 -17.003906 16.257812 -16.316406 17 -15.453125 C 17.75 -14.585938 18.3125 -13.609375 18.6875 -12.515625 C 19.0625 -11.421875 19.25 -10.296875 19.25 -9.140625 Z M 10.015625 -14.21875 C 9.234375 -14.21875 8.578125 -13.972656 8.046875 -13.484375 C 7.515625 -12.992188 7.144531 -12.191406 6.9375 -11.078125 L 12.984375 -11.078125 C 12.648438 -13.171875 11.660156 -14.21875 10.015625 -14.21875 Z M 10.015625 -14.21875 "/></g></g></g><g fill="#ffffff" fill-opacity="1"><g transform="translate(220.389896, 242.939324)"><g><path d="M 20.53125 -24.53125 L 20.53125 0 L 14.515625 0 L 14.515625 -2.609375 L 13.1875 -0.640625 C 12.695312 -0.273438 12.046875 0 11.234375 0.1875 C 10.421875 0.375 9.554688 0.46875 8.640625 0.46875 C 7.035156 0.46875 5.644531 0.0859375 4.46875 -0.671875 C 3.289062 -1.441406 2.382812 -2.5 1.75 -3.84375 C 1.113281 -5.195312 0.796875 -6.753906 0.796875 -8.515625 C 0.796875 -10.628906 1.179688 -12.410156 1.953125 -13.859375 C 2.722656 -15.316406 3.75 -16.421875 5.03125 -17.171875 C 6.320312 -17.921875 7.726562 -18.296875 9.25 -18.296875 C 9.976562 -18.296875 10.734375 -18.21875 11.515625 -18.0625 C 12.296875 -17.90625 12.90625 -17.691406 13.34375 -17.421875 L 14.515625 -15.515625 L 14.515625 -24.53125 Z M 10.71875 -3.609375 C 11.820312 -3.609375 12.726562 -3.984375 13.4375 -4.734375 C 14.15625 -5.492188 14.515625 -6.804688 14.515625 -8.671875 L 14.515625 -9.4375 C 14.515625 -10.644531 14.335938 -11.59375 13.984375 -12.28125 C 13.628906 -12.96875 13.171875 -13.460938 12.609375 -13.765625 C 12.054688 -14.066406 11.476562 -14.21875 10.875 -14.21875 C 9.71875 -14.21875 8.769531 -13.769531 8.03125 -12.875 C 7.300781 -11.988281 6.9375 -10.632812 6.9375 -8.8125 C 6.9375 -7.144531 7.300781 -5.859375 8.03125 -4.953125 C 8.769531 -4.054688 9.664062 -3.609375 10.71875 -3.609375 Z M 10.71875 -3.609375 "/></g></g></g><g fill="#ffffff" fill-opacity="1"><g transform="translate(242.72049, 242.939324)"><g><path d="M 20.53125 -17.828125 L 20.53125 -4.53125 C 20.53125 -3.976562 20.53125 -3.390625 20.53125 -2.765625 C 20.53125 -2.140625 20.519531 -1.582031 20.5 -1.09375 C 20.425781 0.832031 19.953125 2.421875 19.078125 3.671875 C 18.210938 4.921875 17.03125 5.84375 15.53125 6.4375 C 14.03125 7.039062 12.269531 7.34375 10.25 7.34375 C 7.570312 7.34375 5.453125 6.804688 3.890625 5.734375 C 2.335938 4.671875 1.453125 3.125 1.234375 1.09375 L 1.203125 0.765625 L 7.015625 0.765625 L 7.046875 1.09375 C 7.109375 1.675781 7.453125 2.128906 8.078125 2.453125 C 8.703125 2.773438 9.476562 2.9375 10.40625 2.9375 C 11.519531 2.9375 12.445312 2.675781 13.1875 2.15625 C 13.9375 1.632812 14.359375 0.769531 14.453125 -0.4375 C 14.472656 -0.695312 14.488281 -1.023438 14.5 -1.421875 C 14.507812 -1.828125 14.515625 -2.273438 14.515625 -2.765625 L 14.515625 -3.265625 L 13.1875 -1.296875 C 12.1875 -0.566406 10.785156 -0.203125 8.984375 -0.203125 C 7.378906 -0.203125 5.957031 -0.550781 4.71875 -1.25 C 3.488281 -1.945312 2.523438 -2.9375 1.828125 -4.21875 C 1.140625 -5.5 0.796875 -7.019531 0.796875 -8.78125 C 0.796875 -10.894531 1.179688 -12.65625 1.953125 -14.0625 C 2.722656 -15.476562 3.75 -16.535156 5.03125 -17.234375 C 6.320312 -17.941406 7.726562 -18.296875 9.25 -18.296875 C 9.976562 -18.296875 10.734375 -18.21875 11.515625 -18.0625 C 12.296875 -17.90625 12.90625 -17.691406 13.34375 -17.421875 L 14.515625 -15.515625 L 14.515625 -17.828125 Z M 10.71875 -4.265625 C 11.820312 -4.265625 12.726562 -4.644531 13.4375 -5.40625 C 14.15625 -6.164062 14.515625 -7.476562 14.515625 -9.34375 L 14.515625 -9.4375 C 14.515625 -10.644531 14.335938 -11.59375 13.984375 -12.28125 C 13.628906 -12.96875 13.171875 -13.460938 12.609375 -13.765625 C 12.054688 -14.066406 11.476562 -14.21875 10.875 -14.21875 C 9.71875 -14.21875 8.769531 -13.835938 8.03125 -13.078125 C 7.300781 -12.328125 6.9375 -11.039062 6.9375 -9.21875 C 6.9375 -7.539062 7.300781 -6.296875 8.03125 -5.484375 C 8.769531 -4.671875 9.664062 -4.265625 10.71875 -4.265625 Z M 10.71875 -4.265625 "/></g></g></g><g fill="#ffffff" fill-opacity="1"><g transform="translate(265.051085, 242.939324)"><g><path d="M 19.25 -9.140625 C 19.25 -8.585938 19.21875 -8.007812 19.15625 -7.40625 L 6.734375 -7.40625 C 6.890625 -5.914062 7.269531 -4.910156 7.875 -4.390625 C 8.476562 -3.867188 9.203125 -3.609375 10.046875 -3.609375 C 10.890625 -3.609375 11.566406 -3.804688 12.078125 -4.203125 C 12.585938 -4.609375 12.898438 -5.15625 13.015625 -5.84375 L 18.921875 -5.84375 C 18.410156 -3.8125 17.363281 -2.25 15.78125 -1.15625 C 14.207031 -0.0703125 12.273438 0.46875 9.984375 0.46875 C 8.285156 0.46875 6.738281 0.128906 5.34375 -0.546875 C 3.957031 -1.222656 2.851562 -2.25 2.03125 -3.625 C 1.207031 -5.007812 0.796875 -6.75 0.796875 -8.84375 C 0.796875 -10.582031 1.175781 -12.164062 1.9375 -13.59375 C 2.695312 -15.03125 3.785156 -16.171875 5.203125 -17.015625 C 6.628906 -17.867188 8.332031 -18.296875 10.3125 -18.296875 C 11.800781 -18.296875 13.101562 -18.035156 14.21875 -17.515625 C 15.332031 -17.003906 16.257812 -16.316406 17 -15.453125 C 17.75 -14.585938 18.3125 -13.609375 18.6875 -12.515625 C 19.0625 -11.421875 19.25 -10.296875 19.25 -9.140625 Z M 10.015625 -14.21875 C 9.234375 -14.21875 8.578125 -13.972656 8.046875 -13.484375 C 7.515625 -12.992188 7.144531 -12.191406 6.9375 -11.078125 L 12.984375 -11.078125 C 12.648438 -13.171875 11.660156 -14.21875 10.015625 -14.21875 Z M 10.015625 -14.21875 "/></g></g></g><g fill="#ffffff" fill-opacity="1"><g transform="translate(115.049579, 273.077735)"><g><path d="M 14.90625 -4.5625 C 14.90625 -3.039062 14.304688 -1.859375 13.109375 -1.015625 C 11.921875 -0.179688 10.25 0.234375 8.09375 0.234375 C 4.0625 0.234375 1.726562 -1.164062 1.09375 -3.96875 L 3.265625 -4.390625 C 3.515625 -3.398438 4.046875 -2.671875 4.859375 -2.203125 C 5.671875 -1.742188 6.773438 -1.515625 8.171875 -1.515625 C 9.617188 -1.515625 10.734375 -1.757812 11.515625 -2.25 C 12.296875 -2.75 12.6875 -3.476562 12.6875 -4.4375 C 12.6875 -4.976562 12.5625 -5.414062 12.3125 -5.75 C 12.070312 -6.09375 11.726562 -6.375 11.28125 -6.59375 C 10.84375 -6.8125 10.3125 -6.992188 9.6875 -7.140625 C 9.070312 -7.285156 8.390625 -7.445312 7.640625 -7.625 C 6.335938 -7.90625 5.347656 -8.191406 4.671875 -8.484375 C 3.992188 -8.773438 3.457031 -9.097656 3.0625 -9.453125 C 2.675781 -9.804688 2.378906 -10.222656 2.171875 -10.703125 C 1.960938 -11.179688 1.859375 -11.726562 1.859375 -12.34375 C 1.859375 -13.757812 2.398438 -14.847656 3.484375 -15.609375 C 4.566406 -16.378906 6.117188 -16.765625 8.140625 -16.765625 C 10.015625 -16.765625 11.445312 -16.472656 12.4375 -15.890625 C 13.425781 -15.316406 14.117188 -14.34375 14.515625 -12.96875 L 12.3125 -12.578125 C 12.070312 -13.453125 11.613281 -14.085938 10.9375 -14.484375 C 10.257812 -14.878906 9.316406 -15.078125 8.109375 -15.078125 C 6.785156 -15.078125 5.773438 -14.859375 5.078125 -14.421875 C 4.390625 -13.984375 4.046875 -13.328125 4.046875 -12.453125 C 4.046875 -11.953125 4.179688 -11.535156 4.453125 -11.203125 C 4.722656 -10.867188 5.109375 -10.585938 5.609375 -10.359375 C 6.117188 -10.128906 7.132812 -9.84375 8.65625 -9.5 C 9.15625 -9.382812 9.65625 -9.265625 10.15625 -9.140625 C 10.664062 -9.023438 11.148438 -8.882812 11.609375 -8.71875 C 12.078125 -8.550781 12.507812 -8.351562 12.90625 -8.125 C 13.3125 -7.894531 13.660156 -7.613281 13.953125 -7.28125 C 14.253906 -6.957031 14.488281 -6.570312 14.65625 -6.125 C 14.820312 -5.6875 14.90625 -5.164062 14.90625 -4.5625 Z M 14.90625 -4.5625 "/></g></g></g><g fill="#ffffff" fill-opacity="1"><g transform="translate(138.249461, 273.077735)"><g><path d="M 13.671875 0 L 11.796875 -4.828125 L 4.265625 -4.828125 L 2.375 0 L 0.046875 0 L 6.78125 -16.515625 L 9.328125 -16.515625 L 15.96875 0 Z M 8.03125 -14.828125 L 7.921875 -14.5 C 7.722656 -13.851562 7.4375 -13.019531 7.0625 -12 L 4.953125 -6.578125 L 11.125 -6.578125 L 9 -12.03125 C 8.78125 -12.5625 8.5625 -13.171875 8.34375 -13.859375 Z M 8.03125 -14.828125 "/></g></g></g><g fill="#ffffff" fill-opacity="1"><g transform="translate(161.449343, 273.077735)"><g><path d="M 12.6875 0 L 3.84375 -14.0625 L 3.90625 -12.921875 L 3.96875 -10.96875 L 3.96875 0 L 1.96875 0 L 1.96875 -16.515625 L 4.578125 -16.515625 L 13.5 -2.359375 C 13.40625 -3.890625 13.359375 -5 13.359375 -5.6875 L 13.359375 -16.515625 L 15.375 -16.515625 L 15.375 0 Z M 12.6875 0 "/></g></g></g><g fill="#ffffff" fill-opacity="1"><g transform="translate(185.9728, 273.077735)"><g><path d="M 16.1875 -8.421875 C 16.1875 -6.722656 15.851562 -5.234375 15.1875 -3.953125 C 14.519531 -2.679688 13.578125 -1.703125 12.359375 -1.015625 C 11.140625 -0.335938 9.734375 0 8.140625 0 L 1.96875 0 L 1.96875 -16.515625 L 7.4375 -16.515625 C 10.226562 -16.515625 12.382812 -15.8125 13.90625 -14.40625 C 15.425781 -13.007812 16.1875 -11.015625 16.1875 -8.421875 Z M 13.9375 -8.421875 C 13.9375 -10.472656 13.375 -12.035156 12.25 -13.109375 C 11.132812 -14.179688 9.515625 -14.71875 7.390625 -14.71875 L 4.203125 -14.71875 L 4.203125 -1.796875 L 7.890625 -1.796875 C 9.097656 -1.796875 10.160156 -2.0625 11.078125 -2.59375 C 11.992188 -3.125 12.695312 -3.890625 13.1875 -4.890625 C 13.6875 -5.890625 13.9375 -7.066406 13.9375 -8.421875 Z M 13.9375 -8.421875 "/></g></g></g><g fill="#ffffff" fill-opacity="1"><g transform="translate(210.496263, 273.077735)"><g><path d="M 14.75 -4.65625 C 14.75 -3.1875 14.210938 -2.039062 13.140625 -1.21875 C 12.066406 -0.40625 10.578125 0 8.671875 0 L 1.96875 0 L 1.96875 -16.515625 L 7.96875 -16.515625 C 11.84375 -16.515625 13.78125 -15.175781 13.78125 -12.5 C 13.78125 -11.53125 13.503906 -10.710938 12.953125 -10.046875 C 12.410156 -9.378906 11.640625 -8.929688 10.640625 -8.703125 C 11.953125 -8.546875 12.960938 -8.109375 13.671875 -7.390625 C 14.390625 -6.671875 14.75 -5.757812 14.75 -4.65625 Z M 11.53125 -12.234375 C 11.53125 -13.128906 11.222656 -13.765625 10.609375 -14.140625 C 10.003906 -14.523438 9.125 -14.71875 7.96875 -14.71875 L 4.203125 -14.71875 L 4.203125 -9.5 L 7.96875 -9.5 C 9.164062 -9.5 10.054688 -9.722656 10.640625 -10.171875 C 11.234375 -10.617188 11.53125 -11.304688 11.53125 -12.234375 Z M 12.484375 -4.828125 C 12.484375 -6.773438 11.113281 -7.75 8.375 -7.75 L 4.203125 -7.75 L 4.203125 -1.796875 L 8.5625 -1.796875 C 9.925781 -1.796875 10.921875 -2.046875 11.546875 -2.546875 C 12.171875 -3.054688 12.484375 -3.816406 12.484375 -4.828125 Z M 12.484375 -4.828125 "/></g></g></g><g fill="#ffffff" fill-opacity="1"><g transform="translate(233.696148, 273.077735)"><g><path d="M 17.515625 -8.328125 C 17.515625 -6.609375 17.1875 -5.097656 16.53125 -3.796875 C 15.875 -2.503906 14.925781 -1.507812 13.6875 -0.8125 C 12.457031 -0.113281 11 0.234375 9.3125 0.234375 C 7.625 0.234375 6.160156 -0.109375 4.921875 -0.796875 C 3.691406 -1.484375 2.753906 -2.476562 2.109375 -3.78125 C 1.460938 -5.082031 1.140625 -6.597656 1.140625 -8.328125 C 1.140625 -10.972656 1.859375 -13.039062 3.296875 -14.53125 C 4.742188 -16.019531 6.757812 -16.765625 9.34375 -16.765625 C 11.019531 -16.765625 12.472656 -16.425781 13.703125 -15.75 C 14.941406 -15.082031 15.882812 -14.113281 16.53125 -12.84375 C 17.1875 -11.570312 17.515625 -10.066406 17.515625 -8.328125 Z M 15.234375 -8.328125 C 15.234375 -10.390625 14.71875 -12.003906 13.6875 -13.171875 C 12.664062 -14.347656 11.21875 -14.9375 9.34375 -14.9375 C 7.445312 -14.9375 5.984375 -14.359375 4.953125 -13.203125 C 3.921875 -12.046875 3.40625 -10.421875 3.40625 -8.328125 C 3.40625 -6.265625 3.925781 -4.625 4.96875 -3.40625 C 6.019531 -2.1875 7.46875 -1.578125 9.3125 -1.578125 C 11.21875 -1.578125 12.679688 -2.164062 13.703125 -3.34375 C 14.722656 -4.519531 15.234375 -6.179688 15.234375 -8.328125 Z M 15.234375 -8.328125 "/></g></g></g><g fill="#ffffff" fill-opacity="1"><g transform="translate(259.554896, 273.077735)"><g><path d="M 13.03125 0 L 8.078125 -7.21875 L 3.015625 0 L 0.546875 0 L 6.828125 -8.578125 L 1.015625 -16.515625 L 3.5 -16.515625 L 8.09375 -10.03125 L 12.546875 -16.515625 L 15.03125 -16.515625 L 9.375 -8.65625 L 15.5 0 Z M 13.03125 0 "/></g></g></g><g fill="#ffffff" fill-opacity="1"><g transform="translate(149.031668, 287.677832)"><g><path d="M 3.875 -6.21875 C 3.101562 -6.21875 2.503906 -5.972656 2.078125 -5.484375 C 1.660156 -4.992188 1.453125 -4.320312 1.453125 -3.46875 C 1.453125 -2.625 1.671875 -1.945312 2.109375 -1.4375 C 2.554688 -0.925781 3.15625 -0.671875 3.90625 -0.671875 C 4.875 -0.671875 5.597656 -1.144531 6.078125 -2.09375 L 6.84375 -1.71875 C 6.5625 -1.125 6.160156 -0.671875 5.640625 -0.359375 C 5.128906 -0.0546875 4.535156 0.09375 3.859375 0.09375 C 3.171875 0.09375 2.570312 -0.046875 2.0625 -0.328125 C 1.550781 -0.617188 1.164062 -1.03125 0.90625 -1.5625 C 0.644531 -2.101562 0.515625 -2.738281 0.515625 -3.46875 C 0.515625 -4.570312 0.804688 -5.429688 1.390625 -6.046875 C 1.984375 -6.671875 2.804688 -6.984375 3.859375 -6.984375 C 4.585938 -6.984375 5.195312 -6.835938 5.6875 -6.546875 C 6.1875 -6.265625 6.550781 -5.84375 6.78125 -5.28125 L 5.890625 -4.984375 C 5.734375 -5.390625 5.476562 -5.695312 5.125 -5.90625 C 4.769531 -6.113281 4.351562 -6.21875 3.875 -6.21875 Z M 3.875 -6.21875 "/></g></g></g><g fill="#ffffff" fill-opacity="1"><g transform="translate(159.250525, 287.677832)"><g><path d="M 7.296875 -3.46875 C 7.296875 -2.75 7.15625 -2.117188 6.875 -1.578125 C 6.601562 -1.035156 6.210938 -0.617188 5.703125 -0.328125 C 5.191406 -0.046875 4.582031 0.09375 3.875 0.09375 C 3.175781 0.09375 2.566406 -0.046875 2.046875 -0.328125 C 1.535156 -0.617188 1.144531 -1.035156 0.875 -1.578125 C 0.601562 -2.117188 0.46875 -2.75 0.46875 -3.46875 C 0.46875 -4.570312 0.769531 -5.429688 1.375 -6.046875 C 1.976562 -6.671875 2.816406 -6.984375 3.890625 -6.984375 C 4.585938 -6.984375 5.191406 -6.84375 5.703125 -6.5625 C 6.222656 -6.28125 6.617188 -5.875 6.890625 -5.34375 C 7.160156 -4.820312 7.296875 -4.195312 7.296875 -3.46875 Z M 6.34375 -3.46875 C 6.34375 -4.320312 6.128906 -4.992188 5.703125 -5.484375 C 5.273438 -5.972656 4.671875 -6.21875 3.890625 -6.21875 C 3.097656 -6.21875 2.488281 -5.976562 2.0625 -5.5 C 1.632812 -5.019531 1.421875 -4.34375 1.421875 -3.46875 C 1.421875 -2.601562 1.632812 -1.914062 2.0625 -1.40625 C 2.5 -0.90625 3.101562 -0.65625 3.875 -0.65625 C 4.675781 -0.65625 5.285156 -0.898438 5.703125 -1.390625 C 6.128906 -1.878906 6.34375 -2.570312 6.34375 -3.46875 Z M 6.34375 -3.46875 "/></g></g></g><g fill="#ffffff" fill-opacity="1"><g transform="translate(170.025804, 287.677832)"><g><path d="M 5.28125 0 L 1.609375 -5.859375 L 1.625 -5.390625 L 1.65625 -4.578125 L 1.65625 0 L 0.828125 0 L 0.828125 -6.875 L 1.90625 -6.875 L 5.625 -0.984375 C 5.582031 -1.617188 5.5625 -2.082031 5.5625 -2.375 L 5.5625 -6.875 L 6.40625 -6.875 L 6.40625 0 Z M 5.28125 0 "/></g></g></g><g fill="#ffffff" fill-opacity="1"><g transform="translate(180.24466, 287.677832)"><g><path d="M 6.21875 -1.90625 C 6.21875 -1.269531 5.96875 -0.773438 5.46875 -0.421875 C 4.96875 -0.078125 4.269531 0.09375 3.375 0.09375 C 1.695312 0.09375 0.722656 -0.488281 0.453125 -1.65625 L 1.359375 -1.828125 C 1.460938 -1.421875 1.679688 -1.117188 2.015625 -0.921875 C 2.359375 -0.722656 2.820312 -0.625 3.40625 -0.625 C 4.007812 -0.625 4.472656 -0.726562 4.796875 -0.9375 C 5.117188 -1.144531 5.28125 -1.445312 5.28125 -1.84375 C 5.28125 -2.070312 5.226562 -2.253906 5.125 -2.390625 C 5.03125 -2.535156 4.890625 -2.648438 4.703125 -2.734375 C 4.515625 -2.828125 4.289062 -2.90625 4.03125 -2.96875 C 3.78125 -3.03125 3.5 -3.097656 3.1875 -3.171875 C 2.644531 -3.296875 2.234375 -3.414062 1.953125 -3.53125 C 1.671875 -3.65625 1.445312 -3.789062 1.28125 -3.9375 C 1.113281 -4.082031 0.988281 -4.253906 0.90625 -4.453125 C 0.820312 -4.648438 0.78125 -4.878906 0.78125 -5.140625 C 0.78125 -5.734375 1.003906 -6.1875 1.453125 -6.5 C 1.898438 -6.820312 2.546875 -6.984375 3.390625 -6.984375 C 4.171875 -6.984375 4.765625 -6.863281 5.171875 -6.625 C 5.585938 -6.382812 5.878906 -5.976562 6.046875 -5.40625 L 5.125 -5.234375 C 5.03125 -5.597656 4.835938 -5.863281 4.546875 -6.03125 C 4.265625 -6.195312 3.875 -6.28125 3.375 -6.28125 C 2.820312 -6.28125 2.398438 -6.1875 2.109375 -6 C 1.828125 -5.820312 1.6875 -5.550781 1.6875 -5.1875 C 1.6875 -4.976562 1.738281 -4.800781 1.84375 -4.65625 C 1.957031 -4.519531 2.117188 -4.40625 2.328125 -4.3125 C 2.546875 -4.21875 2.972656 -4.097656 3.609375 -3.953125 C 3.816406 -3.910156 4.023438 -3.863281 4.234375 -3.8125 C 4.441406 -3.757812 4.640625 -3.695312 4.828125 -3.625 C 5.023438 -3.5625 5.207031 -3.484375 5.375 -3.390625 C 5.539062 -3.296875 5.6875 -3.175781 5.8125 -3.03125 C 5.9375 -2.894531 6.035156 -2.734375 6.109375 -2.546875 C 6.179688 -2.367188 6.21875 -2.15625 6.21875 -1.90625 Z M 6.21875 -1.90625 "/></g></g></g><g fill="#ffffff" fill-opacity="1"><g transform="translate(189.91197, 287.677832)"><g><path d="M 3.5625 0.09375 C 3 0.09375 2.507812 -0.00390625 2.09375 -0.203125 C 1.675781 -0.410156 1.347656 -0.707031 1.109375 -1.09375 C 0.878906 -1.488281 0.765625 -1.957031 0.765625 -2.5 L 0.765625 -6.875 L 1.703125 -6.875 L 1.703125 -2.578125 C 1.703125 -1.953125 1.859375 -1.472656 2.171875 -1.140625 C 2.492188 -0.816406 2.957031 -0.65625 3.5625 -0.65625 C 4.1875 -0.65625 4.664062 -0.820312 5 -1.15625 C 5.34375 -1.5 5.515625 -1.992188 5.515625 -2.640625 L 5.515625 -6.875 L 6.453125 -6.875 L 6.453125 -2.59375 C 6.453125 -2.03125 6.332031 -1.546875 6.09375 -1.140625 C 5.863281 -0.742188 5.53125 -0.4375 5.09375 -0.21875 C 4.664062 -0.0078125 4.15625 0.09375 3.5625 0.09375 Z M 3.5625 0.09375 "/></g></g></g><g fill="#ffffff" fill-opacity="1"><g transform="translate(200.130828, 287.677832)"><g><path d="M 0.828125 0 L 0.828125 -6.875 L 1.75 -6.875 L 1.75 -0.765625 L 5.234375 -0.765625 L 5.234375 0 Z M 0.828125 0 "/></g></g></g><g fill="#ffffff" fill-opacity="1"><g transform="translate(208.690178, 287.677832)"><g><path d="M 3.515625 -6.125 L 3.515625 0 L 2.59375 0 L 2.59375 -6.125 L 0.21875 -6.125 L 0.21875 -6.875 L 5.875 -6.875 L 5.875 -6.125 Z M 3.515625 -6.125 "/></g></g></g><g fill="#ffffff" fill-opacity="1"><g transform="translate(217.79619, 287.677832)"><g><path d="M 0.921875 0 L 0.921875 -6.875 L 1.859375 -6.875 L 1.859375 0 Z M 0.921875 0 "/></g></g></g><g fill="#ffffff" fill-opacity="1"><g transform="translate(223.573425, 287.677832)"><g><path d="M 5.28125 0 L 1.609375 -5.859375 L 1.625 -5.390625 L 1.65625 -4.578125 L 1.65625 0 L 0.828125 0 L 0.828125 -6.875 L 1.90625 -6.875 L 5.625 -0.984375 C 5.582031 -1.617188 5.5625 -2.082031 5.5625 -2.375 L 5.5625 -6.875 L 6.40625 -6.875 L 6.40625 0 Z M 5.28125 0 "/></g></g></g><g fill="#ffffff" fill-opacity="1"><g transform="translate(233.792283, 287.677832)"><g><path d="M 0.5 -3.46875 C 0.5 -4.582031 0.796875 -5.445312 1.390625 -6.0625 C 1.992188 -6.675781 2.835938 -6.984375 3.921875 -6.984375 C 4.679688 -6.984375 5.300781 -6.851562 5.78125 -6.59375 C 6.257812 -6.34375 6.625 -5.929688 6.875 -5.359375 L 5.984375 -5.09375 C 5.796875 -5.488281 5.53125 -5.773438 5.1875 -5.953125 C 4.84375 -6.128906 4.414062 -6.21875 3.90625 -6.21875 C 3.101562 -6.21875 2.492188 -5.976562 2.078125 -5.5 C 1.660156 -5.019531 1.453125 -4.34375 1.453125 -3.46875 C 1.453125 -2.601562 1.671875 -1.914062 2.109375 -1.40625 C 2.554688 -0.90625 3.175781 -0.65625 3.96875 -0.65625 C 4.414062 -0.65625 4.832031 -0.722656 5.21875 -0.859375 C 5.613281 -0.992188 5.929688 -1.179688 6.171875 -1.421875 L 6.171875 -2.65625 L 4.109375 -2.65625 L 4.109375 -3.4375 L 7.03125 -3.4375 L 7.03125 -1.0625 C 6.664062 -0.695312 6.21875 -0.410156 5.6875 -0.203125 C 5.15625 -0.00390625 4.582031 0.09375 3.96875 0.09375 C 3.25 0.09375 2.628906 -0.046875 2.109375 -0.328125 C 1.585938 -0.617188 1.1875 -1.03125 0.90625 -1.5625 C 0.632812 -2.101562 0.5 -2.738281 0.5 -3.46875 Z M 0.5 -3.46875 "/></g></g></g></svg>