<svg xmlns="http://www.w3.org/2000/svg" xmlns:xlink="http://www.w3.org/1999/xlink" width="500" zoomAndPan="magnify" viewBox="0 0 375 374.999991" height="500" preserveAspectRatio="xMidYMid meet" version="1.0"><defs><g/><clipPath id="66433ce0e0"><path d="M 77 157 L 137.355469 157 L 137.355469 217 L 77 217 Z M 77 157 " clip-rule="nonzero"/></clipPath><clipPath id="98842c1ba3"><path d="M 48.105469 163 L 108 163 L 108 168 L 48.105469 168 Z M 48.105469 163 " clip-rule="nonzero"/></clipPath><clipPath id="01718ac953"><path d="M 67 135.511719 L 89 135.511719 L 89 138 L 67 138 Z M 67 135.511719 " clip-rule="nonzero"/></clipPath><clipPath id="43b68fcaec"><path d="M 48.105469 156 L 108 156 L 108 161 L 48.105469 161 Z M 48.105469 156 " clip-rule="nonzero"/></clipPath><clipPath id="1d9c86f91b"><path d="M 48.105469 171 L 108 171 L 108 175 L 48.105469 175 Z M 48.105469 171 " clip-rule="nonzero"/></clipPath></defs><rect x="-37.5" width="450" fill="#ffffff" y="-37.499999" height="449.999989" fill-opacity="1"/><rect x="-37.5" width="450" fill="#ffffff" y="-37.499999" height="449.999989" fill-opacity="1"/><g clip-path="url(#66433ce0e0)"><path fill="#feae49" d="M 77.535156 157.144531 L 137.320312 157.144531 L 137.320312 216.929688 L 77.535156 216.929688 Z M 77.535156 157.144531 " fill-opacity="1" fill-rule="nonzero"/></g><path fill="#3d424a" d="M 55.753906 145.46875 L 100.246094 145.46875 C 98.871094 143.933594 97.335938 142.527344 95.671875 141.3125 L 60.328125 141.3125 C 58.664062 142.527344 57.128906 143.933594 55.753906 145.46875 Z M 55.753906 145.46875 " fill-opacity="1" fill-rule="nonzero"/><path fill="#3d424a" d="M 56.457031 186.125 C 57.640625 187.375 58.949219 188.492188 60.359375 189.519531 L 95.671875 189.519531 C 97.082031 188.492188 98.359375 187.34375 99.574219 186.125 Z M 56.457031 186.125 " fill-opacity="1" fill-rule="nonzero"/><g clip-path="url(#98842c1ba3)"><path fill="#3d424a" d="M 48.105469 165.398438 C 48.105469 166.039062 48.140625 166.679688 48.171875 167.285156 L 107.828125 167.285156 C 107.859375 166.644531 107.894531 166.039062 107.894531 165.398438 C 107.894531 164.886719 107.894531 164.375 107.859375 163.894531 L 48.140625 163.894531 C 48.105469 164.40625 48.105469 164.917969 48.105469 165.398438 Z M 48.105469 165.398438 " fill-opacity="1" fill-rule="nonzero"/></g><g clip-path="url(#01718ac953)"><path fill="#3d424a" d="M 88.859375 137.570312 C 85.5 136.257812 81.824219 135.523438 77.984375 135.523438 C 74.144531 135.523438 70.5 136.257812 67.140625 137.570312 Z M 88.859375 137.570312 " fill-opacity="1" fill-rule="nonzero"/></g><path fill="#3d424a" d="M 52.875 149.210938 C 52.105469 150.429688 51.402344 151.675781 50.792969 152.988281 L 105.175781 152.988281 C 104.566406 151.675781 103.894531 150.394531 103.09375 149.210938 Z M 52.875 149.210938 " fill-opacity="1" fill-rule="nonzero"/><g clip-path="url(#43b68fcaec)"><path fill="#3d424a" d="M 49.386719 156.761719 C 49.066406 157.882812 48.777344 159 48.554688 160.152344 L 107.414062 160.152344 C 107.222656 159 106.933594 157.847656 106.582031 156.761719 Z M 49.386719 156.761719 " fill-opacity="1" fill-rule="nonzero"/></g><path fill="#3d424a" d="M 88.828125 193.292969 L 67.171875 193.292969 C 70.53125 194.605469 74.175781 195.308594 78.015625 195.308594 C 81.855469 195.308594 85.46875 194.570312 88.828125 193.292969 Z M 88.828125 193.292969 " fill-opacity="1" fill-rule="nonzero"/><g clip-path="url(#1d9c86f91b)"><path fill="#3d424a" d="M 48.652344 171.058594 C 48.90625 172.339844 49.226562 173.621094 49.640625 174.835938 L 106.390625 174.835938 C 106.804688 173.621094 107.125 172.339844 107.382812 171.058594 Z M 48.652344 171.058594 " fill-opacity="1" fill-rule="nonzero"/></g><path fill="#3d424a" d="M 51.179688 178.578125 C 51.816406 179.890625 52.554688 181.167969 53.386719 182.351562 L 102.613281 182.351562 C 103.445312 181.136719 104.183594 179.890625 104.820312 178.578125 Z M 51.179688 178.578125 " fill-opacity="1" fill-rule="nonzero"/><g fill="#efefed" fill-opacity="0.4"><g transform="translate(119.361215, 213.378068)"><g><path d="M 3.015625 0 L 3.015625 -28.578125 L 9.765625 -28.578125 L 19.359375 -14.984375 L 28.984375 -28.578125 L 35.6875 -28.578125 L 35.6875 0 L 27.515625 0 L 27.515625 -14.453125 L 22.046875 -6.78125 L 16.703125 -6.78125 L 11.1875 -14.5 L 11.1875 0 Z M 3.015625 0 "/></g></g></g><g fill="#efefed" fill-opacity="0.4"><g transform="translate(156.922083, 213.378068)"><g><path d="M 16.9375 0.609375 C 14.65625 0.609375 12.566406 0.25 10.671875 -0.46875 C 8.785156 -1.1875 7.144531 -2.210938 5.75 -3.546875 C 4.363281 -4.878906 3.289062 -6.457031 2.53125 -8.28125 C 1.769531 -10.113281 1.390625 -12.117188 1.390625 -14.296875 C 1.390625 -16.472656 1.769531 -18.472656 2.53125 -20.296875 C 3.289062 -22.117188 4.363281 -23.695312 5.75 -25.03125 C 7.144531 -26.363281 8.785156 -27.390625 10.671875 -28.109375 C 12.566406 -28.828125 14.65625 -29.1875 16.9375 -29.1875 C 19.226562 -29.1875 21.316406 -28.828125 23.203125 -28.109375 C 25.097656 -27.390625 26.738281 -26.363281 28.125 -25.03125 C 29.519531 -23.695312 30.597656 -22.117188 31.359375 -20.296875 C 32.117188 -18.472656 32.5 -16.472656 32.5 -14.296875 C 32.5 -12.117188 32.117188 -10.113281 31.359375 -8.28125 C 30.597656 -6.457031 29.519531 -4.878906 28.125 -3.546875 C 26.738281 -2.210938 25.097656 -1.1875 23.203125 -0.46875 C 21.316406 0.25 19.226562 0.609375 16.9375 0.609375 Z M 9.765625 -14.296875 C 9.765625 -12.878906 10.066406 -11.617188 10.671875 -10.515625 C 11.285156 -9.410156 12.132812 -8.550781 13.21875 -7.9375 C 14.3125 -7.320312 15.550781 -7.015625 16.9375 -7.015625 C 18.351562 -7.015625 19.597656 -7.320312 20.671875 -7.9375 C 21.753906 -8.550781 22.597656 -9.410156 23.203125 -10.515625 C 23.816406 -11.617188 24.125 -12.878906 24.125 -14.296875 C 24.125 -15.734375 23.816406 -16.992188 23.203125 -18.078125 C 22.597656 -19.171875 21.753906 -20.023438 20.671875 -20.640625 C 19.597656 -21.253906 18.351562 -21.5625 16.9375 -21.5625 C 15.550781 -21.5625 14.3125 -21.253906 13.21875 -20.640625 C 12.132812 -20.023438 11.285156 -19.171875 10.671875 -18.078125 C 10.066406 -16.992188 9.765625 -15.734375 9.765625 -14.296875 Z M 9.765625 -14.296875 "/></g></g></g><g fill="#efefed" fill-opacity="0.4"><g transform="translate(189.706163, 213.378068)"><g><path d="M 16.9375 0.609375 C 14.65625 0.609375 12.566406 0.25 10.671875 -0.46875 C 8.785156 -1.1875 7.144531 -2.210938 5.75 -3.546875 C 4.363281 -4.878906 3.289062 -6.457031 2.53125 -8.28125 C 1.769531 -10.113281 1.390625 -12.117188 1.390625 -14.296875 C 1.390625 -16.472656 1.769531 -18.472656 2.53125 -20.296875 C 3.289062 -22.117188 4.363281 -23.695312 5.75 -25.03125 C 7.144531 -26.363281 8.785156 -27.390625 10.671875 -28.109375 C 12.566406 -28.828125 14.65625 -29.1875 16.9375 -29.1875 C 19.226562 -29.1875 21.316406 -28.828125 23.203125 -28.109375 C 25.097656 -27.390625 26.738281 -26.363281 28.125 -25.03125 C 29.519531 -23.695312 30.597656 -22.117188 31.359375 -20.296875 C 32.117188 -18.472656 32.5 -16.472656 32.5 -14.296875 C 32.5 -12.117188 32.117188 -10.113281 31.359375 -8.28125 C 30.597656 -6.457031 29.519531 -4.878906 28.125 -3.546875 C 26.738281 -2.210938 25.097656 -1.1875 23.203125 -0.46875 C 21.316406 0.25 19.226562 0.609375 16.9375 0.609375 Z M 9.765625 -14.296875 C 9.765625 -12.878906 10.066406 -11.617188 10.671875 -10.515625 C 11.285156 -9.410156 12.132812 -8.550781 13.21875 -7.9375 C 14.3125 -7.320312 15.550781 -7.015625 16.9375 -7.015625 C 18.351562 -7.015625 19.597656 -7.320312 20.671875 -7.9375 C 21.753906 -8.550781 22.597656 -9.410156 23.203125 -10.515625 C 23.816406 -11.617188 24.125 -12.878906 24.125 -14.296875 C 24.125 -15.734375 23.816406 -16.992188 23.203125 -18.078125 C 22.597656 -19.171875 21.753906 -20.023438 20.671875 -20.640625 C 19.597656 -21.253906 18.351562 -21.5625 16.9375 -21.5625 C 15.550781 -21.5625 14.3125 -21.253906 13.21875 -20.640625 C 12.132812 -20.023438 11.285156 -19.171875 10.671875 -18.078125 C 10.066406 -16.992188 9.765625 -15.734375 9.765625 -14.296875 Z M 9.765625 -14.296875 "/></g></g></g><g fill="#efefed" fill-opacity="0.4"><g transform="translate(222.490238, 213.378068)"><g><path d="M 3.015625 0 L 3.015625 -28.578125 L 9.765625 -28.578125 L 20.625 -14.078125 L 20.625 -28.578125 L 28.75 -28.578125 L 28.75 0 L 22.046875 0 L 11.1875 -14.578125 L 11.1875 0 Z M 3.015625 0 "/></g></g></g><g fill="#713274" fill-opacity="1"><g transform="translate(117.556571, 211.573424)"><g><path d="M 3.015625 0 L 3.015625 -28.578125 L 9.765625 -28.578125 L 19.359375 -14.984375 L 28.984375 -28.578125 L 35.6875 -28.578125 L 35.6875 0 L 27.515625 0 L 27.515625 -14.453125 L 22.046875 -6.78125 L 16.703125 -6.78125 L 11.1875 -14.5 L 11.1875 0 Z M 3.015625 0 "/></g></g></g><g fill="#713274" fill-opacity="1"><g transform="translate(155.117439, 211.573424)"><g><path d="M 16.9375 0.609375 C 14.65625 0.609375 12.566406 0.25 10.671875 -0.46875 C 8.785156 -1.1875 7.144531 -2.210938 5.75 -3.546875 C 4.363281 -4.878906 3.289062 -6.457031 2.53125 -8.28125 C 1.769531 -10.113281 1.390625 -12.117188 1.390625 -14.296875 C 1.390625 -16.472656 1.769531 -18.472656 2.53125 -20.296875 C 3.289062 -22.117188 4.363281 -23.695312 5.75 -25.03125 C 7.144531 -26.363281 8.785156 -27.390625 10.671875 -28.109375 C 12.566406 -28.828125 14.65625 -29.1875 16.9375 -29.1875 C 19.226562 -29.1875 21.316406 -28.828125 23.203125 -28.109375 C 25.097656 -27.390625 26.738281 -26.363281 28.125 -25.03125 C 29.519531 -23.695312 30.597656 -22.117188 31.359375 -20.296875 C 32.117188 -18.472656 32.5 -16.472656 32.5 -14.296875 C 32.5 -12.117188 32.117188 -10.113281 31.359375 -8.28125 C 30.597656 -6.457031 29.519531 -4.878906 28.125 -3.546875 C 26.738281 -2.210938 25.097656 -1.1875 23.203125 -0.46875 C 21.316406 0.25 19.226562 0.609375 16.9375 0.609375 Z M 9.765625 -14.296875 C 9.765625 -12.878906 10.066406 -11.617188 10.671875 -10.515625 C 11.285156 -9.410156 12.132812 -8.550781 13.21875 -7.9375 C 14.3125 -7.320312 15.550781 -7.015625 16.9375 -7.015625 C 18.351562 -7.015625 19.597656 -7.320312 20.671875 -7.9375 C 21.753906 -8.550781 22.597656 -9.410156 23.203125 -10.515625 C 23.816406 -11.617188 24.125 -12.878906 24.125 -14.296875 C 24.125 -15.734375 23.816406 -16.992188 23.203125 -18.078125 C 22.597656 -19.171875 21.753906 -20.023438 20.671875 -20.640625 C 19.597656 -21.253906 18.351562 -21.5625 16.9375 -21.5625 C 15.550781 -21.5625 14.3125 -21.253906 13.21875 -20.640625 C 12.132812 -20.023438 11.285156 -19.171875 10.671875 -18.078125 C 10.066406 -16.992188 9.765625 -15.734375 9.765625 -14.296875 Z M 9.765625 -14.296875 "/></g></g></g><g fill="#713274" fill-opacity="1"><g transform="translate(187.901519, 211.573424)"><g><path d="M 16.9375 0.609375 C 14.65625 0.609375 12.566406 0.25 10.671875 -0.46875 C 8.785156 -1.1875 7.144531 -2.210938 5.75 -3.546875 C 4.363281 -4.878906 3.289062 -6.457031 2.53125 -8.28125 C 1.769531 -10.113281 1.390625 -12.117188 1.390625 -14.296875 C 1.390625 -16.472656 1.769531 -18.472656 2.53125 -20.296875 C 3.289062 -22.117188 4.363281 -23.695312 5.75 -25.03125 C 7.144531 -26.363281 8.785156 -27.390625 10.671875 -28.109375 C 12.566406 -28.828125 14.65625 -29.1875 16.9375 -29.1875 C 19.226562 -29.1875 21.316406 -28.828125 23.203125 -28.109375 C 25.097656 -27.390625 26.738281 -26.363281 28.125 -25.03125 C 29.519531 -23.695312 30.597656 -22.117188 31.359375 -20.296875 C 32.117188 -18.472656 32.5 -16.472656 32.5 -14.296875 C 32.5 -12.117188 32.117188 -10.113281 31.359375 -8.28125 C 30.597656 -6.457031 29.519531 -4.878906 28.125 -3.546875 C 26.738281 -2.210938 25.097656 -1.1875 23.203125 -0.46875 C 21.316406 0.25 19.226562 0.609375 16.9375 0.609375 Z M 9.765625 -14.296875 C 9.765625 -12.878906 10.066406 -11.617188 10.671875 -10.515625 C 11.285156 -9.410156 12.132812 -8.550781 13.21875 -7.9375 C 14.3125 -7.320312 15.550781 -7.015625 16.9375 -7.015625 C 18.351562 -7.015625 19.597656 -7.320312 20.671875 -7.9375 C 21.753906 -8.550781 22.597656 -9.410156 23.203125 -10.515625 C 23.816406 -11.617188 24.125 -12.878906 24.125 -14.296875 C 24.125 -15.734375 23.816406 -16.992188 23.203125 -18.078125 C 22.597656 -19.171875 21.753906 -20.023438 20.671875 -20.640625 C 19.597656 -21.253906 18.351562 -21.5625 16.9375 -21.5625 C 15.550781 -21.5625 14.3125 -21.253906 13.21875 -20.640625 C 12.132812 -20.023438 11.285156 -19.171875 10.671875 -18.078125 C 10.066406 -16.992188 9.765625 -15.734375 9.765625 -14.296875 Z M 9.765625 -14.296875 "/></g></g></g><g fill="#713274" fill-opacity="1"><g transform="translate(220.685594, 211.573424)"><g><path d="M 3.015625 0 L 3.015625 -28.578125 L 9.765625 -28.578125 L 20.625 -14.078125 L 20.625 -28.578125 L 28.75 -28.578125 L 28.75 0 L 22.046875 0 L 11.1875 -14.578125 L 11.1875 0 Z M 3.015625 0 "/></g></g></g><g fill="#713274" fill-opacity="1"><g transform="translate(117.556571, 241.462011)"><g><path d="M 11.046875 0.34375 C 9.671875 0.34375 8.398438 0.101562 7.234375 -0.375 C 6.078125 -0.851562 5.070312 -1.523438 4.21875 -2.390625 C 3.375 -3.265625 2.71875 -4.296875 2.25 -5.484375 C 1.789062 -6.671875 1.5625 -7.972656 1.5625 -9.390625 C 1.5625 -10.804688 1.789062 -12.109375 2.25 -13.296875 C 2.71875 -14.484375 3.375 -15.507812 4.21875 -16.375 C 5.070312 -17.238281 6.078125 -17.910156 7.234375 -18.390625 C 8.398438 -18.878906 9.671875 -19.125 11.046875 -19.125 C 12.535156 -19.125 13.898438 -18.847656 15.140625 -18.296875 C 16.390625 -17.753906 17.457031 -16.976562 18.34375 -15.96875 C 19.226562 -14.957031 19.875 -13.765625 20.28125 -12.390625 L 17.765625 -12.390625 C 17.273438 -13.753906 16.4375 -14.820312 15.25 -15.59375 C 14.0625 -16.375 12.691406 -16.765625 11.140625 -16.765625 C 9.742188 -16.765625 8.507812 -16.453125 7.4375 -15.828125 C 6.363281 -15.203125 5.515625 -14.332031 4.890625 -13.21875 C 4.273438 -12.113281 3.96875 -10.835938 3.96875 -9.390625 C 3.96875 -7.941406 4.273438 -6.660156 4.890625 -5.546875 C 5.515625 -4.441406 6.363281 -3.578125 7.4375 -2.953125 C 8.507812 -2.328125 9.742188 -2.015625 11.140625 -2.015625 C 12.722656 -2.015625 14.128906 -2.425781 15.359375 -3.25 C 16.597656 -4.070312 17.460938 -5.1875 17.953125 -6.59375 L 20.4375 -6.59375 C 20.0625 -5.195312 19.421875 -3.976562 18.515625 -2.9375 C 17.617188 -1.90625 16.53125 -1.097656 15.25 -0.515625 C 13.96875 0.0546875 12.566406 0.34375 11.046875 0.34375 Z M 11.046875 0.34375 "/></g></g></g><g fill="#713274" fill-opacity="1"><g transform="translate(139.438525, 241.462011)"><g><path d="M 8.765625 0.34375 C 7.316406 0.34375 6.035156 0.03125 4.921875 -0.59375 C 3.816406 -1.21875 2.953125 -2.082031 2.328125 -3.1875 C 1.703125 -4.300781 1.390625 -5.5625 1.390625 -6.96875 C 1.390625 -8.40625 1.703125 -9.664062 2.328125 -10.75 C 2.953125 -11.84375 3.816406 -12.703125 4.921875 -13.328125 C 6.035156 -13.953125 7.316406 -14.265625 8.765625 -14.265625 C 10.222656 -14.265625 11.503906 -13.953125 12.609375 -13.328125 C 13.710938 -12.703125 14.578125 -11.84375 15.203125 -10.75 C 15.835938 -9.664062 16.15625 -8.40625 16.15625 -6.96875 C 16.15625 -5.5625 15.835938 -4.300781 15.203125 -3.1875 C 14.578125 -2.082031 13.710938 -1.21875 12.609375 -0.59375 C 11.503906 0.03125 10.222656 0.34375 8.765625 0.34375 Z M 3.65625 -6.96875 C 3.65625 -5.957031 3.875 -5.0625 4.3125 -4.28125 C 4.75 -3.5 5.347656 -2.894531 6.109375 -2.46875 C 6.878906 -2.039062 7.765625 -1.828125 8.765625 -1.828125 C 9.773438 -1.828125 10.660156 -2.039062 11.421875 -2.46875 C 12.191406 -2.894531 12.796875 -3.5 13.234375 -4.28125 C 13.671875 -5.0625 13.890625 -5.957031 13.890625 -6.96875 C 13.890625 -7.988281 13.671875 -8.882812 13.234375 -9.65625 C 12.796875 -10.425781 12.191406 -11.03125 11.421875 -11.46875 C 10.660156 -11.90625 9.773438 -12.125 8.765625 -12.125 C 7.765625 -12.125 6.878906 -11.90625 6.109375 -11.46875 C 5.347656 -11.03125 4.75 -10.425781 4.3125 -9.65625 C 3.875 -8.882812 3.65625 -7.988281 3.65625 -6.96875 Z M 3.65625 -6.96875 "/></g></g></g><g fill="#713274" fill-opacity="1"><g transform="translate(156.976257, 241.462011)"><g><path d="M 2.5 0 L 2.5 -13.921875 L 4.34375 -13.921875 L 4.59375 -11.890625 C 5.195312 -12.722656 5.929688 -13.328125 6.796875 -13.703125 C 7.671875 -14.078125 8.570312 -14.265625 9.5 -14.265625 C 11.351562 -14.265625 12.800781 -13.675781 13.84375 -12.5 C 14.882812 -11.320312 15.40625 -9.738281 15.40625 -7.75 L 15.40625 0 L 13.140625 0 L 13.140625 -7.53125 C 13.140625 -8.945312 12.785156 -10.066406 12.078125 -10.890625 C 11.378906 -11.710938 10.421875 -12.125 9.203125 -12.125 C 8.347656 -12.125 7.582031 -11.910156 6.90625 -11.484375 C 6.238281 -11.066406 5.710938 -10.472656 5.328125 -9.703125 C 4.941406 -8.941406 4.75 -8.050781 4.75 -7.03125 L 4.75 0 Z M 2.5 0 "/></g></g></g><g fill="#713274" fill-opacity="1"><g transform="translate(174.59444, 241.462011)"><g><path d="M 7.53125 0.34375 C 5.707031 0.34375 4.242188 -0.0859375 3.140625 -0.953125 C 2.046875 -1.816406 1.484375 -2.957031 1.453125 -4.375 L 3.671875 -4.375 C 3.710938 -3.53125 4.070312 -2.863281 4.75 -2.375 C 5.425781 -1.894531 6.363281 -1.65625 7.5625 -1.65625 C 8.613281 -1.65625 9.441406 -1.835938 10.046875 -2.203125 C 10.660156 -2.578125 10.96875 -3.078125 10.96875 -3.703125 C 10.96875 -4.328125 10.648438 -4.835938 10.015625 -5.234375 C 9.378906 -5.628906 8.382812 -5.941406 7.03125 -6.171875 C 5.238281 -6.472656 3.910156 -6.960938 3.046875 -7.640625 C 2.179688 -8.328125 1.75 -9.210938 1.75 -10.296875 C 1.75 -11.554688 2.222656 -12.53125 3.171875 -13.21875 C 4.128906 -13.914062 5.453125 -14.265625 7.140625 -14.265625 C 8.859375 -14.265625 10.226562 -13.882812 11.25 -13.125 C 12.28125 -12.363281 12.84375 -11.296875 12.9375 -9.921875 L 10.703125 -9.921875 C 10.628906 -10.691406 10.285156 -11.273438 9.671875 -11.671875 C 9.054688 -12.078125 8.21875 -12.28125 7.15625 -12.28125 C 6.15625 -12.28125 5.375 -12.101562 4.8125 -11.75 C 4.25 -11.40625 3.96875 -10.921875 3.96875 -10.296875 C 3.96875 -9.710938 4.253906 -9.253906 4.828125 -8.921875 C 5.398438 -8.585938 6.410156 -8.28125 7.859375 -8 C 11.421875 -7.300781 13.203125 -5.851562 13.203125 -3.65625 C 13.203125 -2.445312 12.6875 -1.476562 11.65625 -0.75 C 10.625 -0.0195312 9.25 0.34375 7.53125 0.34375 Z M 7.53125 0.34375 "/></g></g></g><g fill="#713274" fill-opacity="1"><g transform="translate(189.236034, 241.462011)"><g><path d="M 8.046875 0.34375 C 6.222656 0.34375 4.796875 -0.242188 3.765625 -1.421875 C 2.742188 -2.597656 2.234375 -4.179688 2.234375 -6.171875 L 2.234375 -13.921875 L 4.484375 -13.921875 L 4.484375 -6.390625 C 4.484375 -4.992188 4.828125 -3.882812 5.515625 -3.0625 C 6.203125 -2.238281 7.144531 -1.828125 8.34375 -1.828125 C 9.644531 -1.828125 10.703125 -2.289062 11.515625 -3.21875 C 12.335938 -4.144531 12.75 -5.367188 12.75 -6.890625 L 12.75 -13.921875 L 15 -13.921875 L 15 0 L 13.140625 0 L 12.90625 -2.03125 C 12.289062 -1.21875 11.554688 -0.617188 10.703125 -0.234375 C 9.859375 0.148438 8.972656 0.34375 8.046875 0.34375 Z M 8.046875 0.34375 "/></g></g></g><g fill="#713274" fill-opacity="1"><g transform="translate(206.720136, 241.462011)"><g><path d="M 2.5 0 L 2.5 -19.859375 L 4.75 -19.859375 L 4.75 0 Z M 2.5 0 "/></g></g></g><g fill="#713274" fill-opacity="1"><g transform="translate(213.960481, 241.462011)"><g><path d="M 8.5 0 C 6.96875 0 5.773438 -0.4375 4.921875 -1.3125 C 4.078125 -2.1875 3.65625 -3.421875 3.65625 -5.015625 L 3.65625 -11.859375 L 0.71875 -11.859375 L 0.71875 -13.921875 L 2.125 -13.921875 C 2.757812 -13.921875 3.203125 -14.023438 3.453125 -14.234375 C 3.710938 -14.453125 3.875 -14.875 3.9375 -15.5 L 4.15625 -17.390625 L 5.90625 -17.390625 L 5.90625 -13.921875 L 10.40625 -13.921875 L 10.40625 -11.859375 L 5.90625 -11.859375 L 5.90625 -5.125 C 5.90625 -3.15625 6.804688 -2.171875 8.609375 -2.171875 L 10.59375 -2.171875 L 10.59375 0 Z M 8.5 0 "/></g></g></g><g fill="#713274" fill-opacity="1"><g transform="translate(225.86684, 241.462011)"><g><path d="M 2.5 0 L 2.5 -13.921875 L 4.75 -13.921875 L 4.75 0 Z M 1.796875 -17.96875 C 1.796875 -18.488281 1.960938 -18.914062 2.296875 -19.25 C 2.628906 -19.582031 3.070312 -19.75 3.625 -19.75 C 4.175781 -19.75 4.613281 -19.582031 4.9375 -19.25 C 5.257812 -18.914062 5.421875 -18.488281 5.421875 -17.96875 C 5.421875 -17.46875 5.257812 -17.050781 4.9375 -16.71875 C 4.613281 -16.394531 4.175781 -16.234375 3.625 -16.234375 C 3.070312 -16.234375 2.628906 -16.394531 2.296875 -16.71875 C 1.960938 -17.050781 1.796875 -17.46875 1.796875 -17.96875 Z M 1.796875 -17.96875 "/></g></g></g><g fill="#713274" fill-opacity="1"><g transform="translate(233.107185, 241.462011)"><g><path d="M 2.5 0 L 2.5 -13.921875 L 4.34375 -13.921875 L 4.59375 -11.890625 C 5.195312 -12.722656 5.929688 -13.328125 6.796875 -13.703125 C 7.671875 -14.078125 8.570312 -14.265625 9.5 -14.265625 C 11.351562 -14.265625 12.800781 -13.675781 13.84375 -12.5 C 14.882812 -11.320312 15.40625 -9.738281 15.40625 -7.75 L 15.40625 0 L 13.140625 0 L 13.140625 -7.53125 C 13.140625 -8.945312 12.785156 -10.066406 12.078125 -10.890625 C 11.378906 -11.710938 10.421875 -12.125 9.203125 -12.125 C 8.347656 -12.125 7.582031 -11.910156 6.90625 -11.484375 C 6.238281 -11.066406 5.710938 -10.472656 5.328125 -9.703125 C 4.941406 -8.941406 4.75 -8.050781 4.75 -7.03125 L 4.75 0 Z M 2.5 0 "/></g></g></g><g fill="#713274" fill-opacity="1"><g transform="translate(250.725368, 241.462011)"><g><path d="M 8.71875 5.71875 C 6.945312 5.71875 5.46875 5.28125 4.28125 4.40625 C 3.101562 3.539062 2.390625 2.367188 2.140625 0.890625 L 4.421875 0.890625 C 4.640625 1.722656 5.125 2.382812 5.875 2.875 C 6.625 3.375 7.570312 3.625 8.71875 3.625 C 10.1875 3.625 11.320312 3.226562 12.125 2.4375 C 12.925781 1.65625 13.328125 0.546875 13.328125 -0.890625 L 13.328125 -2.203125 C 12.722656 -1.554688 11.988281 -1.050781 11.125 -0.6875 C 10.269531 -0.320312 9.34375 -0.140625 8.34375 -0.140625 C 7.019531 -0.140625 5.832031 -0.445312 4.78125 -1.0625 C 3.738281 -1.675781 2.910156 -2.515625 2.296875 -3.578125 C 1.691406 -4.640625 1.390625 -5.851562 1.390625 -7.21875 C 1.390625 -8.570312 1.691406 -9.773438 2.296875 -10.828125 C 2.910156 -11.890625 3.738281 -12.726562 4.78125 -13.34375 C 5.832031 -13.957031 7.019531 -14.265625 8.34375 -14.265625 C 9.394531 -14.265625 10.363281 -14.066406 11.25 -13.671875 C 12.132812 -13.285156 12.882812 -12.742188 13.5 -12.046875 L 13.734375 -13.921875 L 15.59375 -13.921875 L 15.59375 -0.8125 C 15.59375 0.5 15.304688 1.644531 14.734375 2.625 C 14.171875 3.613281 13.375 4.375 12.34375 4.90625 C 11.320312 5.445312 10.113281 5.71875 8.71875 5.71875 Z M 3.65625 -7.21875 C 3.65625 -6.269531 3.863281 -5.421875 4.28125 -4.671875 C 4.695312 -3.929688 5.28125 -3.351562 6.03125 -2.9375 C 6.78125 -2.53125 7.628906 -2.328125 8.578125 -2.328125 C 9.546875 -2.328125 10.398438 -2.53125 11.140625 -2.9375 C 11.890625 -3.351562 12.472656 -3.929688 12.890625 -4.671875 C 13.304688 -5.421875 13.515625 -6.269531 13.515625 -7.21875 C 13.515625 -8.164062 13.304688 -9.003906 12.890625 -9.734375 C 12.472656 -10.472656 11.890625 -11.050781 11.140625 -11.46875 C 10.398438 -11.882812 9.546875 -12.09375 8.578125 -12.09375 C 7.628906 -12.09375 6.78125 -11.882812 6.03125 -11.46875 C 5.28125 -11.050781 4.695312 -10.472656 4.28125 -9.734375 C 3.863281 -9.003906 3.65625 -8.164062 3.65625 -7.21875 Z M 3.65625 -7.21875 "/></g></g></g></svg>